<svg height="512" viewBox="0 0 512 512" width="512" xmlns="http://www.w3.org/2000/svg"><g><g fill="#57a4ff"><path d="m368 56h-224l112-40z"/><path d="m144 80v392h224v-392zm64 24h96v24h-96zm128 336h-160v-288h160z"/></g><g fill="#004fac"><path d="m336 144h-160a8 8 0 0 0 -8 8v288a8 8 0 0 0 8 8h160a8 8 0 0 0 8-8v-288a8 8 0 0 0 -8-8zm-88 160v32h-64v-32zm-64-16v-32h64v32zm80 16h64v32h-64zm0-16v-32h64v32zm0-48v-32h64v32zm-16 0h-64v-32h64zm-64 112h64v32h-64zm80 0h64v32h-64zm64-160h-64v-32h64zm-80-32v32h-64v-32zm-64 240h64v32h-64zm80 32v-32h64v32z"/><path d="m208 136h96a8 8 0 0 0 8-8v-24a8 8 0 0 0 -8-8h-96a8 8 0 0 0 -8 8v24a8 8 0 0 0 8 8zm8-24h80v8h-80z"/><path d="m416 488h-8v-16a8 8 0 0 0 -8-8h-24v-384a8 8 0 0 0 -8-8h-8v-8h8a8 8 0 0 0 2.69-15.53l-112-40a7.893 7.893 0 0 0 -5.38 0l-112 40a8 8 0 0 0 2.69 15.53h8v8h-8a8 8 0 0 0 -8 8v384h-24a8 8 0 0 0 -8 8v16h-40a8 8 0 0 0 0 16h352a8 8 0 0 0 0-16zm-160-463.5 65.81 23.5h-131.62zm-88 39.5h176v8h-176zm-16 24h208v376h-208zm240 400h-272v-8h272z"/><path d="m448 488h-8a8 8 0 0 0 0 16h8a8 8 0 0 0 0-16z"/></g></g></svg>